<?xml version="1.0" encoding="utf-8"?>
<!-- Generator: Adobe Illustrator 25.2.1, SVG Export Plug-In . SVG Version: 6.00 Build 0)  -->
<svg version="1.1" id="Layer_1" xmlns="http://www.w3.org/2000/svg" xmlns:xlink="http://www.w3.org/1999/xlink" x="0px" y="0px"
	 viewBox="0 0 23 20" style="enable-background:new 0 0 23 20;" xml:space="preserve">
<style type="text/css">
	.st0{fill:#969696;}
	.st1{fill:#E2E2E2;}
</style>
<path class="st0" d="M18.9,17.3c-0.1,0.2-0.4,0.4-0.6,0.4h-15c-0.3,0-0.5-0.1-0.6-0.4c-0.1-0.2-0.1-0.5,0.1-0.7l3-4.1
	c0.1-0.2,0.3-0.3,0.6-0.3s0.4,0.1,0.6,0.3l1.4,1.9l4-6C12.4,8.1,12.6,8,12.8,8s0.4,0.1,0.6,0.3l5.5,8.3C19,16.8,19,17,18.9,17.3z"/>
<path class="st1" d="M20.5,0H2.6C1.5,0,0.6,0.9,0.6,2.1v15.1c0,1.1,0.9,2.1,2.1,2.1h17.9c1.1,0,2.1-0.9,2.1-2.1V2.1
	C22.6,0.9,21.7,0,20.5,0z M19.7,16.1c-0.1,0.2-0.4,0.4-0.6,0.4h-15c-0.3,0-0.5-0.1-0.6-0.4c-0.1-0.2-0.1-0.5,0.1-0.7l3-4.1
	C6.7,11.1,6.9,11,7.1,11c0.2,0,0.4,0.1,0.6,0.3l1.4,1.9l4-6c0.1-0.2,0.3-0.3,0.6-0.3c0.2,0,0.4,0.1,0.6,0.3l5.5,8.3
	C19.9,15.6,19.9,15.9,19.7,16.1z"/>
<path d="M3.3,8C3.1,8,2.9,8,2.8,7.9C2.6,7.8,2.5,7.7,2.4,7.6C2.4,7.4,2.3,7.3,2.3,7.1c0-0.2,0-0.3,0.1-0.5c0.1-0.2,0.2-0.3,0.3-0.4
	L4.6,5C4.8,4.8,4.9,4.7,5,4.5S5.1,4.2,5.1,4c0-0.2,0-0.3-0.1-0.5C4.9,3.4,4.8,3.3,4.6,3.2C4.5,3.1,4.3,3.1,4,3.1H2.6V2.4h1.5
	c0.4,0,0.7,0.1,1,0.2C5.4,2.8,5.6,3,5.7,3.2C5.8,3.4,5.9,3.7,5.9,4S5.8,4.6,5.7,4.8C5.6,5.1,5.4,5.3,5.1,5.5L3.3,6.8
	c-0.1,0-0.1,0.1-0.1,0.1c0,0,0,0.1,0,0.2c0,0.1,0,0.1,0.1,0.2c0.1,0,0.1,0.1,0.2,0.1H6V8H3.3z M7,8V2.4h1.8c0.6,0,1.1,0.1,1.5,0.4
	c0.4,0.2,0.8,0.6,1,1c0.2,0.4,0.4,0.9,0.4,1.4s-0.1,1-0.4,1.4c-0.2,0.4-0.6,0.8-1,1C9.9,7.9,9.4,8,8.8,8H7z M7.8,7.3h1
	c0.4,0,0.8-0.1,1.1-0.3c0.3-0.2,0.6-0.4,0.8-0.7C10.9,6,11,5.6,11,5.2c0-0.4-0.1-0.8-0.3-1.1c-0.2-0.3-0.4-0.6-0.8-0.7
	C9.6,3.2,9.2,3.1,8.8,3.1h-1V7.3z"/>
</svg>
