<svg width="21" height="19" viewBox="0 0 21 19" fill="none" xmlns="http://www.w3.org/2000/svg">
<path d="M1.3125 0C2.03725 0 2.625 0.607746 2.625 1.35714V15.6071C2.625 15.9804 2.91867 16.2857 3.28125 16.2857H19.6875C20.4135 16.2857 21 16.8922 21 17.6429C21 18.3935 20.4135 19 19.6875 19H3.28125C1.46918 19 0 17.4817 0 15.6071V1.35714C0 0.607746 0.587754 0 1.3125 0Z" fill="#969696"/>
<path d="M7.448 10.632V8.688H5.468V6.912H7.448V4.968H9.392V6.912H11.372V8.688H9.392V10.632H7.448ZM15.8278 6.612L17.3038 3.432H19.8118L16.9918 8.652V12H14.6638V8.724L11.8438 3.432H14.3638L15.8278 6.612Z" fill="#E2E2E2"/>
</svg>
