<svg width="21" height="19" viewBox="0 0 21 19" fill="none" xmlns="http://www.w3.org/2000/svg">
<path d="M19.6875 0C18.9628 0 18.375 0.607746 18.375 1.35714V15.6071C18.375 15.9804 18.0813 16.2857 17.7188 16.2857H1.3125C0.586523 16.2857 0 16.8922 0 17.6429C0 18.3935 0.586523 19 1.3125 19H17.7188C19.5308 19 21 17.4817 21 15.6071V1.35714C21 0.607746 20.4122 0 19.6875 0Z" fill="#969696"/>
<path d="M3.48 9.672V8.172H6.876V9.672H3.48ZM11.3434 6.612L12.8194 3.432H15.3274L12.5074 8.652V12H10.1794V8.724L7.35938 3.432H9.87938L11.3434 6.612Z" fill="#E2E2E2"/>
</svg>
