<svg width="17" height="19" viewBox="0 0 17 19" fill="none" xmlns="http://www.w3.org/2000/svg">
<path d="M8.5 19C3.80603 19 0 17.6715 0 16.0312V2.96875C0 1.32926 3.80603 0 8.5 0C13.194 0 17 1.32926 17 2.96875V16.0312C17 17.6715 13.194 19 8.5 19ZM15.1786 3.19252L15.1558 3.17434C14.9547 3.00697 14.5525 2.77578 13.896 2.54719C12.602 2.09482 10.6933 1.78125 8.5 1.78125C6.3067 1.78125 4.39799 2.09482 3.10212 2.54719C2.44717 2.77578 2.04569 3.00697 1.84306 3.17434L1.82143 3.19252V6.48301C2.32536 6.72051 3.02205 7.00996 3.90089 7.22148C5.18728 7.4998 6.77344 7.71875 8.5 7.71875C10.2266 7.71875 11.8127 7.4998 13.0991 7.22148C13.9795 7.00996 14.6739 6.72051 15.1786 6.48301V3.19252ZM15.1786 8.44609C14.6739 8.64277 14.1199 8.80977 13.5355 8.95078C12.0859 9.29961 10.3518 9.5 8.5 9.5C6.64821 9.5 4.91406 9.29961 3.46489 8.95078C2.88127 8.80977 2.32688 8.64277 1.82143 8.44609V11.233C2.32536 11.4705 3.02205 11.76 3.90089 11.9715C5.18728 12.2498 6.77344 12.4688 8.5 12.4688C10.2266 12.4688 11.8127 12.2498 13.0991 11.9715C13.9795 11.76 14.6739 11.4705 15.1786 11.233V8.44609ZM1.84306 15.8271C2.04569 15.9607 2.44679 16.2242 3.10212 16.4543C4.39799 16.9033 6.3067 17.2188 8.46585 17.2188C10.6933 17.2188 12.602 16.9033 13.896 16.4543C14.5525 16.2242 14.9547 15.9607 15.1558 15.8271L15.1786 15.7752V13.1961C14.6739 13.3928 14.1199 13.5598 13.5355 13.7008C12.0859 14.0496 10.3518 14.25 8.46585 14.25C6.64821 14.25 4.91406 14.0496 3.46489 13.7008C2.88127 13.5598 2.32687 13.3928 1.78728 13.1961V15.7752L1.84306 15.8271ZM15.2545 15.7307L15.2507 15.7381C15.2545 15.701 15.2583 15.7307 15.2583 15.7307H15.2545ZM1.74933 15.7381C1.74554 15.701 1.74364 15.7307 1.74326 15.7307L1.74933 15.7381ZM1.74933 3.26191C1.74478 3.26711 1.74326 3.26971 1.74326 3.26971L1.74933 3.26191ZM15.2583 3.26971C15.2583 3.26971 15.2545 3.26711 15.2507 3.26191L15.2583 3.26971Z" fill="#E2E2E2"/>
</svg>
