<svg width="19" height="21" viewBox="0 0 19 21" fill="none" xmlns="http://www.w3.org/2000/svg">
<path d="M15.7499 0H2.62499C1.17509 0 0 1.17509 0 2.62499V5.24998H18.3749V2.62499C18.3749 1.17509 17.1978 0 15.7499 0ZM8.53122 16.4062H4.59373C4.2328 16.4062 3.93748 16.7015 3.93748 17.0624C3.93748 17.4248 4.23132 17.7187 4.59373 17.7187H8.53122C8.89363 17.7187 9.18746 17.4248 9.18746 17.0624C9.18746 16.7015 8.89215 16.4062 8.53122 16.4062ZM13.7812 8.53122H4.59373C4.2328 8.53122 3.93748 8.82653 3.93748 9.18746C3.93748 9.54988 4.23132 9.84371 4.59373 9.84371H13.7812C14.1421 9.84371 14.4374 9.5484 14.4374 9.18746C14.4374 8.82653 14.1421 8.53122 13.7812 8.53122ZM13.7812 12.4687H4.59373C4.2328 12.4687 3.93748 12.764 3.93748 13.1249C3.93748 13.4874 4.23132 13.7812 4.59373 13.7812H13.7812C14.1436 13.7812 14.4374 13.4874 14.4374 13.1249C14.4374 12.764 14.1421 12.4687 13.7812 12.4687Z" fill="#969696"/>
<path d="M0 5.25V18.3749C0 19.8248 1.17509 20.9999 2.62499 20.9999H15.7499C17.1998 20.9999 18.3749 19.8248 18.3749 18.3749V5.25H0ZM8.53122 17.7187H4.59373C4.2328 17.7187 3.93748 17.4234 3.93748 17.0625C3.93748 16.7 4.23132 16.4062 4.59373 16.4062H8.53122C8.89363 16.4062 9.18746 16.7 9.18746 17.0625C9.18746 17.4234 8.89215 17.7187 8.53122 17.7187ZM13.7812 13.7812H4.59373C4.2328 13.7812 3.93748 13.4859 3.93748 13.125C3.93748 12.7625 4.23132 12.4687 4.59373 12.4687H13.7812C14.1436 12.4687 14.4374 12.7625 14.4374 13.125C14.4374 13.4859 14.1421 13.7812 13.7812 13.7812ZM13.7812 9.84373H4.59373C4.2328 9.84373 3.93748 9.54842 3.93748 9.18748C3.93748 8.82499 4.23132 8.53124 4.59373 8.53124H13.7812C14.1421 8.53124 14.4374 8.82655 14.4374 9.18748C14.4374 9.54842 14.1421 9.84373 13.7812 9.84373Z" fill="#E2E2E2"/>
<path d="M8.53123 16.4062H4.59375C4.23281 16.4062 3.9375 16.7015 3.9375 17.0625C3.9375 17.4249 4.23133 17.7187 4.59375 17.7187H8.53123C8.89364 17.7187 9.18748 17.4249 9.18748 17.0625C9.18748 16.7015 8.89217 16.4062 8.53123 16.4062ZM13.7812 8.53125H4.59375C4.23281 8.53125 3.9375 8.82656 3.9375 9.1875C3.9375 9.54991 4.23133 9.84375 4.59375 9.84375H13.7812C14.1421 9.84375 14.4375 9.54843 14.4375 9.1875C14.4375 8.82656 14.1421 8.53125 13.7812 8.53125ZM13.7812 12.4687H4.59375C4.23281 12.4687 3.9375 12.764 3.9375 13.125C3.9375 13.4874 4.23133 13.7812 4.59375 13.7812H13.7812C14.1436 13.7812 14.4375 13.4874 14.4375 13.125C14.4375 12.764 14.1421 12.4687 13.7812 12.4687Z" fill="#5A5A5A"/>
</svg>
