<svg width="22" height="22" viewBox="0 0 22 22" fill="none" xmlns="http://www.w3.org/2000/svg">
<circle cx="11" cy="11.1001" r="10.5" fill="#D9D9D9"/>
<path d="M6.26419 10.3116C6.89949 10.3116 7.4128 10.825 7.4128 11.4602L7.39247 13.5389L13.2219 7.70949L11.1432 7.72982C10.5079 7.72982 9.99462 7.2165 9.99462 6.58121C9.99462 5.94592 10.5079 5.4326 11.1432 5.4326H16.0223C16.6576 5.4326 17.1709 5.94592 17.1709 6.58121V11.4602C17.1709 12.0955 16.6576 12.6089 16.0223 12.6089C15.387 12.6089 14.8737 12.0955 14.8737 11.4602L14.8711 9.3587L9.04169 15.1881L11.1432 15.1907C11.7785 15.1907 12.2918 15.704 12.2918 16.3393C12.2918 16.9746 11.7785 17.4879 11.1432 17.4879L6.26419 17.4879C5.62839 17.4884 5.11508 16.9751 5.11559 16.3393L5.11559 11.4602C5.11559 10.825 5.6289 10.3116 6.26419 10.3116Z" fill="#5A5A5A"/>
</svg>
