<svg width="24" height="24" viewBox="0 0 24 24" fill="none" xmlns="http://www.w3.org/2000/svg">
<path d="M9.08241 2.20183C9.66447 1.93272 10.3364 1.93272 10.9184 2.20183L19.4579 6.1486C19.7899 6.30095 20.0008 6.633 20.0008 6.96504C20.0008 7.3635 19.7899 7.69554 19.4579 7.8518L10.9184 11.7973C10.3364 12.0668 9.66447 12.0668 9.08241 11.7973L0.544164 7.8518C0.212431 7.69554 0 7.3635 0 6.96504C0 6.633 0.212392 6.30095 0.544164 6.1486L9.08241 2.20183ZM19.4579 16.149C19.7899 16.3014 20.0008 16.6334 20.0008 16.9655C20.0008 17.3639 19.7899 17.696 19.4579 17.8522L10.9184 21.7977C10.3364 22.0672 9.66447 22.0672 9.08241 21.7977L0.544164 17.8522C0.212431 17.696 0 17.3639 0 16.9655C0 16.6334 0.212392 16.3014 0.544164 16.149L2.62238 15.188L8.55896 17.9303C9.47306 18.3561 10.5278 18.3561 11.4419 17.9303L17.3796 15.188L19.4579 16.149Z" fill="#A9A9AB"/>
<path d="M11.4419 12.9303L17.3796 10.188L19.4579 11.149C19.7899 11.3013 20.0008 11.6334 20.0008 11.9654C20.0008 12.3639 19.7899 12.6959 19.4579 12.8522L10.9184 16.7976C10.3364 17.0672 9.66447 17.0672 9.08241 16.7976L0.544164 12.8522C0.212431 12.6959 0 12.3639 0 11.9654C0 11.6334 0.212392 11.3013 0.544164 11.149L2.62238 10.188L8.55896 12.9303C9.47306 13.3561 10.5278 13.3561 11.4419 12.9303Z" fill="#E2E2E2"/>
<path d="M16 22.3003V13.5484C16 13.2456 16.2456 13 16.5487 13C16.6828 13 16.8124 13.0492 16.913 13.1386L23.3958 18.9005C23.507 18.9999 23.5709 19.1419 23.5709 19.2909C23.5709 19.5796 23.3366 19.8138 23.048 19.8138H19.4069L16.9128 22.6647C16.8139 22.7782 16.671 22.8421 16.5207 22.8421C16.2332 22.8421 16 22.6079 16 22.3003H16Z" fill="#E2E2E2"/>
<path d="M19.3853 19.8137H20.2536L21.5974 22.5037C21.7843 22.8776 21.6329 23.3318 21.2591 23.5187C20.8853 23.7056 20.431 23.5542 20.2441 23.1804L18.8672 20.4289L19.3853 19.8137Z" fill="#E2E2E2"/>
</svg>
