<svg width="19" height="19" viewBox="0 0 19 19" fill="none" xmlns="http://www.w3.org/2000/svg">
<path d="M5.9375 0C6.59434 0 7.125 0.531777 7.125 1.1875V15.4375C7.125 17.4043 5.5293 19 3.5625 19C1.59496 19 0 17.4043 0 15.4375V1.1875C0 0.531777 0.531777 0 1.1875 0H5.9375ZM4.75 2.375H2.375V4.75H4.75V2.375ZM2.375 9.5H4.75V7.125H2.375V9.5ZM3.5625 16.3281C4.05605 16.3281 4.45312 15.9311 4.45312 15.4375C4.45312 14.9439 4.05605 14.5469 3.5625 14.5469C3.0708 14.5469 2.67188 14.9439 2.67188 15.4375C2.67188 15.9311 3.0708 16.3281 3.5625 16.3281Z" fill="#969696"/>
<path d="M2.375 2.375H4.75V4.75H2.375V2.375ZM16.15 7.95625L8.29766 15.8049C8.30879 15.6861 8.3125 15.56 8.3125 15.4375V5.71484L11.1105 2.91791C11.5744 2.45404 12.3277 2.45404 12.7916 2.91791L16.15 6.2752C16.6139 6.73906 16.6139 7.49238 16.15 7.95625ZM17.8125 19H6.78359L13.9086 11.875H17.8125C18.4693 11.875 19 12.4057 19 13.0625V17.8125C19 18.4693 18.4693 19 17.8125 19ZM4.75 9.5H2.375V7.125H4.75V9.5Z" fill="#E2E2E2"/>
</svg>
