<svg width="20" height="21" viewBox="0 0 20 21" fill="none" xmlns="http://www.w3.org/2000/svg">
<path d="M9.16016 0.154149C9.70312 -0.0513291 10.2969 -0.0513291 10.8398 0.154149L18.3398 2.98839C19.3008 3.36452 20 4.36147 20 5.48159V15.5172C20 16.6373 19.3008 17.6335 18.3398 18.0096L10.8398 20.845C10.2969 21.0517 9.70312 21.0517 9.16016 20.845L1.65898 18.0096C0.664063 17.6335 0 16.6373 0 15.5172V5.48159C0 4.36147 0.664063 3.36452 1.65898 2.98839L9.16016 0.154149ZM10.0233 2.12121L2.00465 4.93628L10.0233 8.48472L18.0419 4.77267L10.0233 2.12121ZM10.0233 18.7236V8.48472L2.00465 4.93628V16.0724L10.0233 18.7236ZM10.0233 18.7236L18.0419 16.0724V4.77267L10.0233 8.48472V18.7236Z" fill="#A9A9AB"/>
<path d="M8.99795 14H3.82595V12.944L6.86195 8.816H4.00595V7.448H8.88995V8.612L5.93795 12.632H8.99795V14ZM11.6413 10.652L9.52933 7.448H11.5573L12.8293 9.536L14.1133 7.448H16.1413L14.0053 10.652L16.2373 14H14.2093L12.8293 11.756L11.4493 14H9.42133L11.6413 10.652Z" fill="#E2E2E2"/>
</svg>
