<svg width="18" height="18" viewBox="0 0 18 18" fill="none" xmlns="http://www.w3.org/2000/svg">
<path d="M9 0C9.62227 0 10.125 0.503789 10.125 1.125V2.34316C12.9516 2.81742 15.184 5.04844 15.6551 7.875H16.875C17.4973 7.875 18 8.37773 18 9C18 9.62227 17.4973 10.125 16.875 10.125H15.6551C15.184 12.9516 12.9516 15.184 10.125 15.6551V16.875C10.125 17.4973 9.62227 18 9 18C8.37773 18 7.875 17.4973 7.875 16.875V15.6551C5.04844 15.184 2.81742 12.9516 2.34316 10.125H1.125C0.503789 10.125 0 9.62227 0 9C0 8.37773 0.503789 7.875 1.125 7.875H2.34316C2.81742 5.04844 5.04844 2.81742 7.875 2.34316V1.125C7.875 0.503789 8.37773 0 9 0ZM4.5 9C4.5 11.4855 6.51445 13.5 9 13.5C11.4855 13.5 13.5 11.4855 13.5 9C13.5 6.51445 11.4855 4.5 9 4.5C6.51445 4.5 4.5 6.51445 4.5 9Z" fill="#969696"/>
<path d="M11.8125 9C11.8125 10.5539 10.5539 11.8125 9 11.8125C7.44609 11.8125 6.1875 10.5539 6.1875 9C6.1875 7.44609 7.44609 6.1875 9 6.1875C10.5539 6.1875 11.8125 7.44609 11.8125 9Z" fill="#E2E2E2"/>
</svg>
