<svg width="20" height="21" viewBox="0 0 20 21" fill="none" xmlns="http://www.w3.org/2000/svg">
<path d="M9.16016 0.154149C9.70313 -0.0513291 10.2969 -0.0513291 10.8398 0.154149L18.3398 2.98839C19.3008 3.36452 20 4.36147 20 5.48159V15.5172C20 16.6373 19.3008 17.6335 18.3398 18.0096L10.8398 20.845C10.2969 21.0517 9.70313 21.0517 9.16016 20.845L1.65898 18.0096C0.664063 17.6335 0 16.6373 0 15.5172V5.48159C0 4.36147 0.664063 3.36452 1.65898 2.98839L9.16016 0.154149ZM10.0233 2.12121L2.00465 4.93627L10.0233 8.48472L18.0419 4.77267L10.0233 2.12121ZM10.0233 18.7236V8.48472L2.00465 4.93627V16.0724L10.0233 18.7236ZM10.0233 18.7236L18.0419 16.0724V4.77267L10.0233 8.48472V18.7236Z" fill="#A9A9AB"/>
<path d="M5.39523 10.652L3.28323 7.448H5.31123L6.58323 9.536L7.86723 7.448H9.89523L7.75923 10.652L9.99123 14H7.96323L6.58323 11.756L5.20323 14H3.17523L5.39523 10.652ZM10.0527 7.448H12.0087L13.2447 11.132C13.3087 11.316 13.3567 11.5 13.3887 11.684C13.4207 11.868 13.4447 12.064 13.4607 12.272H13.4967C13.5207 12.064 13.5527 11.868 13.5927 11.684C13.6327 11.5 13.6847 11.316 13.7487 11.132L14.9607 7.448H16.8807L14.1087 14.84C13.8527 15.52 13.4887 16.028 13.0167 16.364C12.5447 16.708 11.9967 16.88 11.3727 16.88C11.1647 16.88 10.9887 16.868 10.8447 16.844C10.7007 16.828 10.5727 16.808 10.4607 16.784V15.368C10.5407 15.384 10.6447 15.4 10.7727 15.416C10.9007 15.432 11.0327 15.44 11.1687 15.44C11.5447 15.44 11.8407 15.324 12.0567 15.092C12.2727 14.868 12.4367 14.596 12.5487 14.276L12.6567 13.952L10.0527 7.448Z" fill="#E2E2E2"/>
</svg>
