<svg width="20" height="20" viewBox="0 0 20 20" fill="none" xmlns="http://www.w3.org/2000/svg">
<path d="M9.1389 0.145344C9.68061 -0.048397 10.273 -0.048397 10.8147 0.145344L18.2973 2.81768C19.256 3.17233 19.9536 4.11233 19.9536 5.16846V14.6308C19.9536 15.687 19.256 16.6262 18.2973 16.9808L10.8147 19.6543C10.273 19.8492 9.68061 19.8492 9.1389 19.6543L1.65513 16.9808C0.662521 16.6262 0 15.687 0 14.6308V5.16846C0 4.11233 0.662521 3.17233 1.65513 2.81768L9.1389 0.145344ZM10 2.00004L2 4.6543L10 8.00004L18 4.50004L10 2.00004ZM9 17.6543V9.50004L2 6.6543V15.1543L9 17.6543ZM11 17.6543L18 15.1543V6.6543L11 9.53331V17.6543Z" fill="url(#paint0_linear_350_3411)"/>
<defs>
<linearGradient id="paint0_linear_350_3411" x1="9.97679" y1="0" x2="9.97679" y2="19.8004" gradientUnits="userSpaceOnUse">
<stop stop-color="#E2E2E2"/>
<stop offset="1" stop-color="#969696"/>
</linearGradient>
</defs>
</svg>
