<svg width="23" height="19" viewBox="0 0 23 19" fill="none" xmlns="http://www.w3.org/2000/svg">
<path d="M16.0992 11.4999V9.7749C16.0992 8.18646 17.3858 6.8999 18.9742 6.8999C20.5627 6.8999 21.8492 8.18646 21.8492 9.7749V11.4999C22.4853 11.4999 22.9992 12.0138 22.9992 12.6499V17.2499C22.9992 17.886 22.4853 18.3999 21.8492 18.3999H16.0992C15.4631 18.3999 14.9492 17.886 14.9492 17.2499V12.6499C14.9492 12.0138 15.4631 11.4999 16.0992 11.4999ZM17.8242 11.4999H20.1242V9.7749C20.1242 9.13881 19.6103 8.6249 18.9742 8.6249C18.3381 8.6249 17.8242 9.13881 17.8242 9.7749V11.4999Z" fill="#E2E2E2"/>
<path d="M8.86219 14.6122L5.41219 18.0622C4.96297 18.5114 4.23703 18.5114 3.78781 18.0622L0.336842 14.6122C-0.112269 14.163 -0.112269 13.437 0.336842 12.9878C0.785953 12.5386 1.51405 12.5386 1.96327 12.9878L3.45 14.472V10.3177H1.15C0.514984 10.3177 0 9.83609 0 9.16766C0 8.56391 0.514984 8.01766 1.15 8.01766H10.35V3.92797L8.86219 5.41219C8.41297 5.86141 7.68703 5.86141 7.23781 5.41219C6.78859 4.96297 6.78859 4.23703 7.23781 3.78781L10.6878 0.336806C10.9034 0.121145 11.1945 0 11.5 0C11.8055 0 12.0966 0.121181 12.3122 0.336806L15.7622 3.78781C16.2114 4.23703 16.2114 4.96297 15.7622 5.41219C15.313 5.86141 14.587 5.86141 14.1378 5.41219L12.65 3.92797V8.01766H15.3381C15.0902 8.57109 14.95 9.15688 14.95 9.74266V10.3177H5.75V14.472L7.23781 12.9878C7.68703 12.5386 8.41297 12.5386 8.86219 12.9878C9.31141 13.437 9.31141 14.163 8.86219 14.6122ZM5.75 2.26766V6.86766H3.45V2.26766C3.45 1.66498 3.96391 1.11766 4.6 1.11766C5.23609 1.11766 5.75 1.66498 5.75 2.26766ZM10.35 16.1V11.4677H12.65V16.1C12.65 16.7361 12.1361 17.25 11.5 17.25C10.8639 17.25 10.35 16.7361 10.35 16.1Z" fill="#969696"/>
</svg>
