<svg id="Layer_1" data-name="Layer 1" xmlns="http://www.w3.org/2000/svg" viewBox="0 0 23 20"><defs><style>.cls-1{fill:#969696;}.cls-2{fill:#e2e2e2;}</style></defs><path class="cls-1" d="M18.91,17.26a.67.67,0,0,1-.61.36h-15a.7.7,0,0,1-.62-.37.72.72,0,0,1,.06-.72l3-4.12a.68.68,0,0,1,.55-.29.7.7,0,0,1,.56.29l1.39,1.91,4-6A.67.67,0,0,1,12.8,8a.69.69,0,0,1,.58.31l5.5,8.25A.68.68,0,0,1,18.91,17.26Z"/><path class="cls-2" d="M20.52,0H2.64A2.06,2.06,0,0,0,.58,2.06V17.19a2.06,2.06,0,0,0,2.06,2.06H20.52a2.06,2.06,0,0,0,2.06-2.06V2.06A2.06,2.06,0,0,0,20.52,0Zm-.77,16.14a.7.7,0,0,1-.61.36H4.1a.69.69,0,0,1-.61-.38.66.66,0,0,1,.06-.71l3-4.13A.69.69,0,0,1,7.11,11a.66.66,0,0,1,.55.28l1.4,1.91,4-6a.64.64,0,0,1,.57-.34.67.67,0,0,1,.57.3l5.5,8.25A.7.7,0,0,1,19.75,16.14Z"/><path d="M3.28,8a1,1,0,0,1-.51-.12.81.81,0,0,1-.33-.33.94.94,0,0,1-.11-.45,1,1,0,0,1,.12-.46,1.1,1.1,0,0,1,.33-.38L4.61,5A1.38,1.38,0,0,0,5,4.51,1,1,0,0,0,5.14,4a.83.83,0,0,0-.5-.8,1.2,1.2,0,0,0-.59-.13H2.6V2.4H4.13a1.89,1.89,0,0,1,1,.22,1.57,1.57,0,0,1,.61.59,1.54,1.54,0,0,1,.21.8,1.67,1.67,0,0,1-.21.82,1.81,1.81,0,0,1-.63.67L3.26,6.77a.27.27,0,0,0-.13.13.24.24,0,0,0,0,.15.26.26,0,0,0,.08.2.36.36,0,0,0,.24.07H6.05V8ZM7,8V2.4H8.81a3.14,3.14,0,0,1,1.55.36,2.53,2.53,0,0,1,1,1,2.89,2.89,0,0,1,.36,1.45,2.89,2.89,0,0,1-.36,1.45,2.53,2.53,0,0,1-1,1A3.14,3.14,0,0,1,8.81,8Zm.77-.68h1a2.33,2.33,0,0,0,1.11-.26,1.88,1.88,0,0,0,.76-.72A2.19,2.19,0,0,0,11,5.2a2.19,2.19,0,0,0-.28-1.14,1.88,1.88,0,0,0-.76-.72,2.33,2.33,0,0,0-1.11-.26h-1Z"/></svg>