<svg width="21" height="18" viewBox="0 0 21 18" fill="none" xmlns="http://www.w3.org/2000/svg">
<rect width="21" height="18" rx="3" fill="#D9D9D9"/>
<path d="M5.104 13V8.536H4.168V6.784H5.104V6.16C5.104 5.568 5.276 5.1 5.62 4.756C5.964 4.412 6.44 4.24 7.048 4.24H9.172V6.016H7.684C7.604 6.016 7.536 6.044 7.48 6.1C7.424 6.148 7.396 6.212 7.396 6.292V6.784H8.896V8.536H7.396V13H5.104ZM8.95675 13L10.9008 10.3C10.5648 10.116 10.2848 9.912 10.0608 9.688C9.83675 9.456 9.66475 9.2 9.54475 8.92C9.43275 8.64 9.37675 8.332 9.37675 7.996V6.784H11.6688V7.696C11.6688 7.856 11.6968 8 11.7528 8.128C11.8088 8.248 11.8808 8.352 11.9688 8.44C12.0568 8.52 12.1488 8.584 12.2448 8.632L13.3848 6.784H16.0848L14.2848 9.376C14.6368 9.544 14.9328 9.748 15.1728 9.988C15.4128 10.228 15.5928 10.5 15.7128 10.804C15.8328 11.1 15.8928 11.424 15.8928 11.776V13H13.5888V11.956C13.5888 11.788 13.5528 11.64 13.4808 11.512C13.4168 11.376 13.3328 11.264 13.2288 11.176C13.1248 11.088 13.0128 11.032 12.8928 11.008L11.6448 13H8.95675Z" fill="#5A5A5A"/>
</svg>
