<svg width="17" height="20" viewBox="0 0 17 20" fill="none" xmlns="http://www.w3.org/2000/svg">
<path d="M17 3.03571V4.85714C17 6.53438 13.194 7.89286 8.5 7.89286C3.80603 7.89286 0 6.53438 0 4.85714V3.03571C0 1.35924 3.80603 0 8.5 0C13.194 0 17 1.35924 17 3.03571ZM14.9205 8.1471C15.6757 7.86629 16.4346 7.5058 17 7.06183V13.1333C17 14.8105 13.194 15.1786 8.5 15.1786C3.80603 15.1786 0 14.8105 0 13.1333V7.06183C0.56654 7.5058 1.29094 7.86629 2.08136 8.1471C3.78174 8.75424 6.05246 9.10714 8.5 9.10714C10.9475 9.10714 13.2167 8.75424 14.9205 8.1471ZM2.08136 14.2185C3.78174 14.8257 6.05246 15.1786 8.5 15.1786C10.9475 15.1786 13.2167 14.8257 14.9205 14.2185C15.6757 13.9377 16.4346 13.5772 17 13.1333V16.3929C17 18.0701 13.194 19.4286 8.5 19.4286C3.80603 19.4286 0 18.0701 0 16.3929V13.1333C0.56654 13.5772 1.29094 13.9377 2.08136 14.2185Z" fill="#969696"/>
</svg>
