<svg width="22" height="19" viewBox="0 0 22 19" fill="none" xmlns="http://www.w3.org/2000/svg">
<path d="M20.6875 0C19.9628 0 19.375 0.607746 19.375 1.35714V15.6071C19.375 15.9804 19.0813 16.2857 18.7188 16.2857H2.3125C1.58652 16.2857 1 16.8922 1 17.6429C1 18.3935 1.58652 19 2.3125 19H18.7188C20.5308 19 22 17.4817 22 15.6071V1.35714C22 0.607746 21.4122 0 20.6875 0Z" fill="#969696"/>
<path d="M7.36 12H10.036L11.704 9.324L13.36 12H15.976L13.132 7.62L15.808 3.432H13.24L11.692 6.084L10.204 3.432H7.564L10.276 7.8L7.36 12ZM4.88012 10.632V8.688H6.86012V6.912H4.88012V4.968H2.93612V6.912H0.956125V8.688H2.93612V10.632H4.88012Z" fill="#E2E2E2"/>
</svg>
