<svg width="23" height="16" viewBox="0 0 23 16" fill="none" xmlns="http://www.w3.org/2000/svg">
<path d="M8.86202 3.63794C9.31124 4.08716 9.31124 4.8131 8.86202 5.26231L7.3778 6.71778H15.6219L14.1376 5.26231C13.6884 4.8131 13.6884 4.08716 14.1376 3.63794C14.5869 3.18872 15.3128 3.18872 15.762 3.63794L19.212 7.08794C19.6612 7.53716 19.6612 8.2631 19.212 8.71231L15.762 12.1623C15.3128 12.6115 14.5869 12.6115 14.1376 12.1623C13.6884 11.7131 13.6884 10.9872 14.1376 10.5379L15.6219 9.05013H7.3778L8.86202 10.5379C9.31124 10.9872 9.31124 11.7131 8.86202 12.1623C8.41281 12.6115 7.68687 12.6115 7.23765 12.1623L3.78765 8.71231C3.33771 8.2631 3.33771 7.53716 3.78765 7.08794L7.23765 3.63794C7.68687 3.18872 8.41281 3.18872 8.86202 3.63794Z" fill="#E2E2E2"/>
<path d="M2.3 14.6667C2.3 15.4042 1.78502 16 1.15 16C0.514984 16 0 15.4042 0 14.6667V1.33333C0 0.597083 0.514984 0 1.15 0C1.78502 0 2.3 0.597083 2.3 1.33333V14.6667ZM23 14.6667C23 15.4042 22.4861 16 21.85 16C21.2139 16 20.7 15.4042 20.7 14.6667V1.33333C20.7 0.597083 21.2139 0 21.85 0C22.4861 0 23 0.597083 23 1.33333V14.6667Z" fill="#A9A9AB"/>
</svg>
