<svg width="21" height="18" viewBox="0 0 21 18" fill="none" xmlns="http://www.w3.org/2000/svg">
<rect x="1" y="1" width="19" height="16" rx="2" stroke="#E2E2E2" stroke-width="2"/>
<path d="M6.164 13V8.368H5.132V6.844H6.164V6.04C6.164 5.48 6.324 5.04 6.644 4.72C6.964 4.4 7.404 4.24 7.964 4.24H9.836V5.764H8.372C8.276 5.764 8.192 5.8 8.12 5.872C8.056 5.936 8.024 6.016 8.024 6.112V6.844H9.572V8.368H8.024V13H6.164ZM9.9275 13L11.7995 10.312C11.4715 10.144 11.1955 9.944 10.9715 9.712C10.7555 9.472 10.5875 9.2 10.4675 8.896C10.3555 8.592 10.2995 8.268 10.2995 7.924V6.844H12.1595V7.828C12.1595 8.02 12.1955 8.2 12.2675 8.368C12.3475 8.528 12.4515 8.664 12.5795 8.776C12.7155 8.88 12.8635 8.956 13.0235 9.004L14.4395 6.844H16.5395L14.7635 9.424C15.1235 9.568 15.4275 9.768 15.6755 10.024C15.9315 10.272 16.1235 10.556 16.2515 10.876C16.3875 11.196 16.4555 11.54 16.4555 11.908V13H14.5835V11.968C14.5835 11.752 14.5315 11.556 14.4275 11.38C14.3315 11.204 14.1995 11.06 14.0315 10.948C13.8715 10.836 13.6915 10.772 13.4915 10.756L12.0155 13H9.9275Z" fill="#E2E2E2"/>
</svg>
