<svg width="21" height="19" viewBox="0 0 21 19" fill="none" xmlns="http://www.w3.org/2000/svg">
<path d="M1.3125 0C2.03725 0 2.625 0.607746 2.625 1.35714V15.6071C2.625 15.9804 2.91867 16.2857 3.28125 16.2857H19.6875C20.4135 16.2857 21 16.8922 21 17.6429C21 18.3935 20.4135 19 19.6875 19H3.28125C1.46918 19 0 17.4817 0 15.6071V1.35714C0 0.607746 0.587754 0 1.3125 0Z" fill="#969696"/>
<path d="M5.48 9.672V8.172H8.876V9.672H5.48ZM17.9994 12H15.3234L13.6554 9.324L11.9994 12H9.38338L12.2274 7.62L9.55138 3.432H12.1194L13.6674 6.084L15.1554 3.432H17.7954L15.0834 7.8L17.9994 12Z" fill="#E2E2E2"/>
</svg>
