<svg width="20" height="21" viewBox="0 0 20 21" fill="none" xmlns="http://www.w3.org/2000/svg">
<path d="M9.16016 0.154149C9.70312 -0.0513291 10.2969 -0.0513291 10.8398 0.154149L18.3398 2.98839C19.3008 3.36452 20 4.36147 20 5.48159V15.5172C20 16.6373 19.3008 17.6335 18.3398 18.0096L10.8398 20.845C10.2969 21.0517 9.70312 21.0517 9.16016 20.845L1.65898 18.0096C0.664063 17.6335 0 16.6373 0 15.5172V5.48159C0 4.36147 0.664063 3.36452 1.65898 2.98839L9.16016 0.154149ZM10.0233 2.12121L2.00465 4.93628L10.0233 8.48472L18.0419 4.77267L10.0233 2.12121ZM10.0233 18.7236V8.48472L2.00465 4.93628V16.0724L10.0233 18.7236ZM10.0233 18.7236L18.0419 16.0724V4.77267L10.0233 8.48472V18.7236Z" fill="#A9A9AB"/>
<path d="M3.55469 7.448H5.51069L6.74669 11.132C6.81069 11.316 6.85869 11.5 6.89069 11.684C6.92269 11.868 6.94669 12.064 6.96269 12.272H6.99869C7.02269 12.064 7.05469 11.868 7.09469 11.684C7.13469 11.5 7.18669 11.316 7.25069 11.132L8.46269 7.448H10.3827L7.61069 14.84C7.35469 15.52 6.99069 16.028 6.51869 16.364C6.04669 16.708 5.49869 16.88 4.87469 16.88C4.66669 16.88 4.49069 16.868 4.34669 16.844C4.20269 16.828 4.07469 16.808 3.96269 16.784V15.368C4.04269 15.384 4.14669 15.4 4.27469 15.416C4.40269 15.432 4.53469 15.44 4.67069 15.44C5.04669 15.44 5.34269 15.324 5.55869 15.092C5.77469 14.868 5.93869 14.596 6.05069 14.276L6.15869 13.952L3.55469 7.448ZM15.8827 14H10.7107V12.944L13.7467 8.816H10.8907V7.448H15.7747V8.612L12.8227 12.632H15.8827V14Z" fill="#E2E2E2"/>
</svg>
