<svg width="18" height="18" viewBox="0 0 18 18" fill="none" xmlns="http://www.w3.org/2000/svg">
<path d="M15.5064 10.125C15.3689 10.9688 15.0767 11.7598 14.6642 12.4664L12.9111 11.0637C13.2239 10.4449 13.3992 9.74531 13.3992 9C13.3992 6.51445 11.4295 4.5 8.99922 4.5C7.89234 4.5 6.87828 4.91836 6.10484 5.60742L4.35516 4.20469C5.30047 3.24633 6.52766 2.57871 7.89922 2.34316V1.125C7.89922 0.503789 8.39078 0 8.99922 0C9.60766 0 10.0992 0.503789 10.0992 1.125V2.34316C12.863 2.81742 15.0458 5.04844 15.5064 7.875H16.6992C17.3077 7.875 17.7992 8.37773 17.7992 9C17.7992 9.62227 17.3077 10.125 16.6992 10.125H15.5064ZM11.7492 9C11.7492 9.34805 11.6873 9.68203 11.5739 9.99141L7.44203 6.67969C7.88547 6.37031 8.42172 6.1875 8.99922 6.1875C10.5186 6.1875 11.7492 7.44609 11.7492 9ZM10.0992 15.6551V16.875C10.0992 17.4973 9.60766 18 8.99922 18C8.39078 18 7.89922 17.4973 7.89922 16.875V15.6551C5.13547 15.184 2.95266 12.9516 2.49203 10.125H1.29922C0.691813 10.125 0.199219 9.62227 0.199219 9C0.199219 8.37773 0.691813 7.875 1.29922 7.875H2.49203C2.53328 7.62188 2.58828 7.37227 2.65703 7.12617L4.60953 8.70117C4.60266 8.79961 4.59922 8.89805 4.59922 9C4.59922 11.4855 6.56891 13.5 8.99922 13.5C9.45641 13.5 9.89641 13.398 10.3123 13.2961L12.2614 14.8676C11.6048 15.2508 10.8761 15.525 10.0992 15.6551Z" fill="#969696"/>
</svg>
