<svg width="24" height="16" viewBox="0 0 24 16" fill="none" xmlns="http://www.w3.org/2000/svg">
<path d="M21.4595 9.19554C21.2933 9.73817 19.7316 14.5 16.2491 14.5C12.7843 14.5 11.2435 8.86763 11.0535 8.22634C10.6705 6.63616 9.31367 3.35714 7.72529 3.35714C5.9766 3.35714 4.67739 6.30536 4.36061 7.33839C4.20919 7.82879 3.68013 8.10737 3.17779 7.96228C2.67482 7.81429 2.38954 7.29487 2.5403 6.80446C2.7073 6.26183 4.26828 1.5 7.72529 1.5C11.2167 1.5 12.7576 7.13237 12.9209 7.77656C13.3306 9.33772 14.6874 12.6429 16.2491 12.6429C17.9984 12.6429 19.2982 9.69464 19.6129 8.66161C19.7646 8.17004 20.2948 7.89437 20.7957 8.03859C21.3259 8.18571 21.611 8.70513 21.4595 9.19554Z" fill="#E2E2E2"/>
<rect x="0.5" width="2.2" height="16" rx="1.1" fill="#A9A9AB"/>
<rect x="21.5" width="2.2" height="16" rx="1.1" fill="#A9A9AB"/>
</svg>
