<svg width="24" height="24" viewBox="0 0 24 24" fill="none" xmlns="http://www.w3.org/2000/svg">
<path d="M13.0656 2.22578L22.059 6.19687C22.6305 6.44922 23 7.02474 23 7.66667C23 8.30859 22.6305 8.88411 22.059 9.13646L13.0656 13.1076C12.6918 13.2581 12.3652 13.3333 12 13.3333C11.6348 13.3333 11.2695 13.2581 10.9344 13.1076L1.94102 9.13646C1.37013 8.88411 1 8.30859 1 7.66667C1 7.02474 1.37013 6.44922 1.94102 6.19687L10.9344 2.22578C11.2695 2.07526 11.6348 2 12 2C12.3652 2 12.6918 2.07526 13.0656 2.22578ZM3.84711 7.66667L11.7465 11.1552C11.7895 11.1906 11.8754 11.2083 12 11.2083C12.0859 11.2083 12.1719 11.1906 12.2535 11.1552L20.1512 7.66667L12.2535 4.17813C12.1719 4.14271 12.0859 4.125 12 4.125C11.8754 4.125 11.7895 4.14271 11.7465 4.17813L3.84711 7.66667ZM3.55793 11.8547C3.84238 12.2664 3.80328 12.8154 3.45352 13.1784L11.7465 16.8219C11.7895 16.8573 11.8754 16.875 12 16.875C12.0859 16.875 12.1719 16.8573 12.2535 16.8219L20.4219 13.2138C20.2242 12.9083 20.1855 12.501 20.3574 12.1513C20.6152 11.6245 21.234 11.412 21.741 11.6732L22.132 11.8768C22.6648 12.1513 23 12.7091 23 13.3201C23 13.9708 22.6262 14.5552 22.0504 14.8076L13.0656 18.7742C12.6918 18.9247 12.3652 19 12 19C11.6348 19 11.2695 18.9247 10.9344 18.7742L1.98012 14.8208C1.38547 14.5596 1.00004 13.9576 1.00004 13.2891C1.00004 12.7534 1.25223 12.2487 1.67719 11.9344L2.11934 11.6068C2.58297 11.2659 3.22707 11.3766 3.55793 11.8547Z" fill="#A9A9AB"/>
<path d="M16 22.3003V13.5484C16 13.2456 16.2456 13 16.5487 13C16.6828 13 16.8124 13.0492 16.913 13.1386L23.3958 18.9005C23.507 18.9999 23.5709 19.1419 23.5709 19.2909C23.5709 19.5796 23.3366 19.8138 23.048 19.8138H19.4069L16.9128 22.6647C16.8139 22.7782 16.671 22.8421 16.5207 22.8421C16.2332 22.8421 16 22.6079 16 22.3003H16Z" fill="#E2E2E2"/>
<path d="M19.3853 19.8137H20.2536L21.5974 22.5037C21.7843 22.8776 21.6329 23.3318 21.2591 23.5187C20.8853 23.7056 20.431 23.5542 20.2441 23.1804L18.8672 20.4289L19.3853 19.8137Z" fill="#E2E2E2"/>
</svg>
