<svg width="24" height="21" viewBox="0 0 24 21" fill="none" xmlns="http://www.w3.org/2000/svg">
<g id="Group 8" opacity="0.5">
<path id="Vector" d="M2.25 17.625C2.25 18.2484 2.75391 18.75 3.375 18.75H22.875C23.4984 18.75 24 19.2516 24 19.875C24 20.4984 23.4984 21 22.875 21H3.375C1.51125 21 0 19.4906 0 17.625V1.125C0 0.503906 0.503906 0 1.125 0C1.74609 0 2.25 0.503906 2.25 1.125V17.625ZM15.7547 12.7547C15.3563 13.2328 14.6438 13.2328 14.2031 12.7547L10.4578 9.08906L6.75469 12.7547C6.35625 13.2328 5.64375 13.2328 5.20313 12.7547C4.76719 12.3563 4.76719 11.6438 5.20313 11.2031L9.70313 6.70312C9.91406 6.49219 10.2 6.375 10.4578 6.375C10.8 6.375 11.0859 6.49219 11.2547 6.70312L15 10.4109L20.5781 4.82812C21.0188 4.39219 21.7313 4.39219 22.1297 4.82812C22.6078 5.26875 22.6078 5.98125 22.1297 6.37969L15.7547 12.7547Z" fill="white"/>
</g>
</svg>
